<mxfile host="Electron" modified="2023-12-26T21:31:27.856Z" agent="Mozilla/5.0 (Windows NT 10.0; Win64; x64) AppleWebKit/537.36 (KHTML, like Gecko) draw.io/21.6.8 Chrome/114.0.5735.289 Electron/25.5.0 Safari/537.36" etag="wACfp2gFKRV2CFv9SiOr" version="21.6.8" type="device">
  <diagram name="Страница — 1" id="RAmGI-j6_s9UQyLgtaMn">
    <mxGraphModel dx="2320" dy="1102" grid="1" gridSize="10" guides="1" tooltips="1" connect="1" arrows="1" fold="1" page="1" pageScale="1" pageWidth="827" pageHeight="1169" math="0" shadow="0">
      <root>
        <mxCell id="0" />
        <mxCell id="1" parent="0" />
        <mxCell id="tQHQrTJd7DZpxrk2Vpas-204" value="Lyag := SpeedLyag + Lyag&#xa;    Las := SpeedLas + Las&#xa;    Yas := SpeedYas + Yas" style="text;whiteSpace=wrap;" vertex="1" parent="1">
          <mxGeometry x="81" y="135" width="180" height="60" as="geometry" />
        </mxCell>
        <mxCell id="tQHQrTJd7DZpxrk2Vpas-205" value="SpeedLyag:=(-SmertLyag + klimat * RojdLyag - LyagLas * Las) * Lyag * time&#xa;  SpeedLas:=(-SmertLas + Lyag * RojdLas - LasYas * Yas) * Las * time&#xa;  SpeedYas:=(-SmertYas + RojdYas * Las) * Yas * time" style="text;whiteSpace=wrap;" vertex="1" parent="1">
          <mxGeometry x="300" y="130" width="440" height="70" as="geometry" />
        </mxCell>
        <mxCell id="tQHQrTJd7DZpxrk2Vpas-206" style="edgeStyle=orthogonalEdgeStyle;rounded=0;orthogonalLoop=1;jettySize=auto;html=1;exitX=1;exitY=0.5;exitDx=0;exitDy=0;entryX=0;entryY=0.5;entryDx=0;entryDy=0;" edge="1" parent="1" source="tQHQrTJd7DZpxrk2Vpas-208" target="tQHQrTJd7DZpxrk2Vpas-220">
          <mxGeometry relative="1" as="geometry">
            <Array as="points">
              <mxPoint x="481" y="305" />
              <mxPoint x="481" y="371" />
            </Array>
          </mxGeometry>
        </mxCell>
        <mxCell id="tQHQrTJd7DZpxrk2Vpas-207" style="edgeStyle=orthogonalEdgeStyle;rounded=0;orthogonalLoop=1;jettySize=auto;html=1;exitX=1;exitY=0.5;exitDx=0;exitDy=0;entryX=-0.006;entryY=0.124;entryDx=0;entryDy=0;entryPerimeter=0;" edge="1" parent="1" source="tQHQrTJd7DZpxrk2Vpas-208" target="tQHQrTJd7DZpxrk2Vpas-211">
          <mxGeometry relative="1" as="geometry">
            <mxPoint x="448.5" y="287.5" as="sourcePoint" />
            <mxPoint x="148.5" y="616" as="targetPoint" />
            <Array as="points">
              <mxPoint x="481" y="329" />
              <mxPoint x="481" y="434" />
              <mxPoint x="31" y="434" />
              <mxPoint x="31" y="569" />
              <mxPoint x="141" y="569" />
            </Array>
          </mxGeometry>
        </mxCell>
        <mxCell id="tQHQrTJd7DZpxrk2Vpas-208" value="Lyag := SpeedLyag + Lyag" style="rounded=0;whiteSpace=wrap;html=1;" vertex="1" parent="1">
          <mxGeometry x="146" y="205" width="300" height="199" as="geometry" />
        </mxCell>
        <mxCell id="tQHQrTJd7DZpxrk2Vpas-209" style="edgeStyle=orthogonalEdgeStyle;rounded=0;orthogonalLoop=1;jettySize=auto;html=1;exitX=1;exitY=0.5;exitDx=0;exitDy=0;entryX=-0.008;entryY=0.852;entryDx=0;entryDy=0;entryPerimeter=0;" edge="1" parent="1" source="tQHQrTJd7DZpxrk2Vpas-211" target="tQHQrTJd7DZpxrk2Vpas-215">
          <mxGeometry relative="1" as="geometry">
            <Array as="points">
              <mxPoint x="481" y="620" />
              <mxPoint x="481" y="673" />
            </Array>
          </mxGeometry>
        </mxCell>
        <mxCell id="tQHQrTJd7DZpxrk2Vpas-210" style="edgeStyle=orthogonalEdgeStyle;rounded=0;orthogonalLoop=1;jettySize=auto;html=1;exitX=1;exitY=0.5;exitDx=0;exitDy=0;entryX=0.001;entryY=0.051;entryDx=0;entryDy=0;entryPerimeter=0;" edge="1" parent="1" source="tQHQrTJd7DZpxrk2Vpas-211" target="tQHQrTJd7DZpxrk2Vpas-213">
          <mxGeometry relative="1" as="geometry">
            <Array as="points">
              <mxPoint x="446" y="620" />
              <mxPoint x="466" y="620" />
              <mxPoint x="466" y="765" />
              <mxPoint x="31" y="765" />
              <mxPoint x="31" y="843" />
              <mxPoint x="141" y="843" />
            </Array>
          </mxGeometry>
        </mxCell>
        <mxCell id="tQHQrTJd7DZpxrk2Vpas-211" value="&amp;nbsp;Las := SpeedLas + Las" style="rounded=0;whiteSpace=wrap;html=1;" vertex="1" parent="1">
          <mxGeometry x="146" y="545" width="300" height="190" as="geometry" />
        </mxCell>
        <mxCell id="tQHQrTJd7DZpxrk2Vpas-212" style="edgeStyle=orthogonalEdgeStyle;rounded=0;orthogonalLoop=1;jettySize=auto;html=1;exitX=1;exitY=0.5;exitDx=0;exitDy=0;entryX=-0.01;entryY=0.821;entryDx=0;entryDy=0;entryPerimeter=0;" edge="1" parent="1" source="tQHQrTJd7DZpxrk2Vpas-213" target="tQHQrTJd7DZpxrk2Vpas-216">
          <mxGeometry relative="1" as="geometry">
            <Array as="points">
              <mxPoint x="471" y="910" />
              <mxPoint x="471" y="968" />
            </Array>
          </mxGeometry>
        </mxCell>
        <mxCell id="tQHQrTJd7DZpxrk2Vpas-213" value="Yas := SpeedYas + Yas" style="rounded=0;whiteSpace=wrap;html=1;" vertex="1" parent="1">
          <mxGeometry x="146" y="835" width="300" height="160" as="geometry" />
        </mxCell>
        <mxCell id="tQHQrTJd7DZpxrk2Vpas-214" value="" style="whiteSpace=wrap;html=1;aspect=fixed;" vertex="1" parent="1">
          <mxGeometry x="510" y="254" width="150" height="150" as="geometry" />
        </mxCell>
        <mxCell id="tQHQrTJd7DZpxrk2Vpas-215" value="" style="whiteSpace=wrap;html=1;aspect=fixed;" vertex="1" parent="1">
          <mxGeometry x="510" y="545" width="150" height="150" as="geometry" />
        </mxCell>
        <mxCell id="tQHQrTJd7DZpxrk2Vpas-216" value="" style="whiteSpace=wrap;html=1;aspect=fixed;" vertex="1" parent="1">
          <mxGeometry x="531" y="845" width="150" height="150" as="geometry" />
        </mxCell>
        <mxCell id="tQHQrTJd7DZpxrk2Vpas-217" value="" style="ellipse;whiteSpace=wrap;html=1;aspect=fixed;" vertex="1" parent="1">
          <mxGeometry x="545" y="580" width="80" height="80" as="geometry" />
        </mxCell>
        <mxCell id="tQHQrTJd7DZpxrk2Vpas-218" value="" style="ellipse;whiteSpace=wrap;html=1;aspect=fixed;" vertex="1" parent="1">
          <mxGeometry x="566" y="880" width="80" height="80" as="geometry" />
        </mxCell>
        <mxCell id="tQHQrTJd7DZpxrk2Vpas-219" value="" style="ellipse;whiteSpace=wrap;html=1;aspect=fixed;" vertex="1" parent="1">
          <mxGeometry x="545" y="289" width="80" height="80" as="geometry" />
        </mxCell>
        <mxCell id="tQHQrTJd7DZpxrk2Vpas-220" value="" style="ellipse;whiteSpace=wrap;html=1;aspect=fixed;" vertex="1" parent="1">
          <mxGeometry x="520" y="354" width="35" height="35" as="geometry" />
        </mxCell>
        <mxCell id="tQHQrTJd7DZpxrk2Vpas-221" style="edgeStyle=orthogonalEdgeStyle;rounded=0;orthogonalLoop=1;jettySize=auto;html=1;exitX=1;exitY=0.5;exitDx=0;exitDy=0;entryX=0.5;entryY=1;entryDx=0;entryDy=0;" edge="1" parent="1" source="tQHQrTJd7DZpxrk2Vpas-222" target="tQHQrTJd7DZpxrk2Vpas-232">
          <mxGeometry relative="1" as="geometry" />
        </mxCell>
        <mxCell id="tQHQrTJd7DZpxrk2Vpas-222" value="" style="ellipse;whiteSpace=wrap;html=1;aspect=fixed;" vertex="1" parent="1">
          <mxGeometry x="620" y="354" width="35" height="35" as="geometry" />
        </mxCell>
        <mxCell id="tQHQrTJd7DZpxrk2Vpas-223" value="" style="ellipse;whiteSpace=wrap;html=1;aspect=fixed;" vertex="1" parent="1">
          <mxGeometry x="517.5" y="655" width="35" height="35" as="geometry" />
        </mxCell>
        <mxCell id="tQHQrTJd7DZpxrk2Vpas-224" style="edgeStyle=orthogonalEdgeStyle;rounded=0;orthogonalLoop=1;jettySize=auto;html=1;exitX=1;exitY=0.5;exitDx=0;exitDy=0;" edge="1" parent="1" source="tQHQrTJd7DZpxrk2Vpas-225">
          <mxGeometry relative="1" as="geometry">
            <mxPoint x="760" y="314.9999999999999" as="targetPoint" />
          </mxGeometry>
        </mxCell>
        <mxCell id="tQHQrTJd7DZpxrk2Vpas-225" value="" style="ellipse;whiteSpace=wrap;html=1;aspect=fixed;" vertex="1" parent="1">
          <mxGeometry x="617.5" y="655" width="35" height="35" as="geometry" />
        </mxCell>
        <mxCell id="tQHQrTJd7DZpxrk2Vpas-226" value="" style="ellipse;whiteSpace=wrap;html=1;aspect=fixed;" vertex="1" parent="1">
          <mxGeometry x="538.5" y="950" width="35" height="35" as="geometry" />
        </mxCell>
        <mxCell id="tQHQrTJd7DZpxrk2Vpas-227" style="edgeStyle=orthogonalEdgeStyle;rounded=0;orthogonalLoop=1;jettySize=auto;html=1;exitX=1;exitY=0.5;exitDx=0;exitDy=0;entryX=0.5;entryY=1;entryDx=0;entryDy=0;" edge="1" parent="1" source="tQHQrTJd7DZpxrk2Vpas-228" target="tQHQrTJd7DZpxrk2Vpas-232">
          <mxGeometry relative="1" as="geometry" />
        </mxCell>
        <mxCell id="tQHQrTJd7DZpxrk2Vpas-228" value="" style="ellipse;whiteSpace=wrap;html=1;aspect=fixed;" vertex="1" parent="1">
          <mxGeometry x="638.5" y="950" width="35" height="35" as="geometry" />
        </mxCell>
        <mxCell id="tQHQrTJd7DZpxrk2Vpas-229" value="" style="endArrow=classic;html=1;rounded=0;entryX=0;entryY=0.25;entryDx=0;entryDy=0;" edge="1" parent="1">
          <mxGeometry width="50" height="50" relative="1" as="geometry">
            <mxPoint x="30" y="254.15999999999997" as="sourcePoint" />
            <mxPoint x="146" y="253.65999999999997" as="targetPoint" />
          </mxGeometry>
        </mxCell>
        <mxCell id="tQHQrTJd7DZpxrk2Vpas-230" value="RojdLyag" style="text;html=1;strokeColor=none;fillColor=none;align=center;verticalAlign=middle;whiteSpace=wrap;rounded=0;" vertex="1" parent="1">
          <mxGeometry x="80" y="287.15999999999997" width="60" height="30" as="geometry" />
        </mxCell>
        <mxCell id="tQHQrTJd7DZpxrk2Vpas-231" value="Lyag" style="text;html=1;strokeColor=none;fillColor=none;align=center;verticalAlign=middle;whiteSpace=wrap;rounded=0;" vertex="1" parent="1">
          <mxGeometry x="80" y="535" width="60" height="30" as="geometry" />
        </mxCell>
        <mxCell id="tQHQrTJd7DZpxrk2Vpas-232" value="&lt;font style=&quot;font-size: 21px;&quot;&gt;s := s + time&lt;/font&gt;" style="rounded=0;whiteSpace=wrap;html=1;" vertex="1" parent="1">
          <mxGeometry x="700" y="254" width="120" height="60" as="geometry" />
        </mxCell>
        <mxCell id="tQHQrTJd7DZpxrk2Vpas-233" value="Lyag" style="text;html=1;strokeColor=none;fillColor=none;align=center;verticalAlign=middle;whiteSpace=wrap;rounded=0;" vertex="1" parent="1">
          <mxGeometry x="465" y="346.15999999999997" width="60" height="30" as="geometry" />
        </mxCell>
        <mxCell id="tQHQrTJd7DZpxrk2Vpas-234" value="&lt;font style=&quot;font-size: 17px;&quot;&gt;Las&lt;/font&gt;" style="text;html=1;strokeColor=none;fillColor=none;align=center;verticalAlign=middle;whiteSpace=wrap;rounded=0;" vertex="1" parent="1">
          <mxGeometry x="95" y="369" width="30" height="30" as="geometry" />
        </mxCell>
        <mxCell id="tQHQrTJd7DZpxrk2Vpas-235" value="" style="endArrow=classic;html=1;rounded=0;" edge="1" parent="1">
          <mxGeometry width="50" height="50" relative="1" as="geometry">
            <mxPoint x="451" y="620" as="sourcePoint" />
            <mxPoint x="145" y="395" as="targetPoint" />
            <Array as="points">
              <mxPoint x="461" y="620" />
              <mxPoint x="461" y="585" />
              <mxPoint x="461" y="545" />
              <mxPoint x="291" y="495" />
              <mxPoint x="31" y="415" />
              <mxPoint x="31" y="395" />
            </Array>
          </mxGeometry>
        </mxCell>
        <mxCell id="tQHQrTJd7DZpxrk2Vpas-236" value="" style="endArrow=classic;html=1;rounded=0;exitX=1.003;exitY=0.469;exitDx=0;exitDy=0;entryX=-0.003;entryY=0.978;entryDx=0;entryDy=0;entryPerimeter=0;exitPerimeter=0;" edge="1" parent="1" source="tQHQrTJd7DZpxrk2Vpas-213" target="tQHQrTJd7DZpxrk2Vpas-211">
          <mxGeometry width="50" height="50" relative="1" as="geometry">
            <mxPoint x="445" y="907" as="sourcePoint" />
            <mxPoint x="191" y="725" as="targetPoint" />
            <Array as="points">
              <mxPoint x="471" y="910" />
              <mxPoint x="470" y="832" />
              <mxPoint x="251" y="785" />
              <mxPoint x="31" y="745" />
              <mxPoint x="31" y="731" />
            </Array>
          </mxGeometry>
        </mxCell>
        <mxCell id="tQHQrTJd7DZpxrk2Vpas-237" value="" style="endArrow=classic;html=1;rounded=0;entryX=0;entryY=0.25;entryDx=0;entryDy=0;" edge="1" parent="1">
          <mxGeometry width="50" height="50" relative="1" as="geometry">
            <mxPoint x="30" y="317.15999999999997" as="sourcePoint" />
            <mxPoint x="146" y="317.15999999999997" as="targetPoint" />
          </mxGeometry>
        </mxCell>
        <mxCell id="tQHQrTJd7DZpxrk2Vpas-238" value="SmertLyag" style="text;html=1;strokeColor=none;fillColor=none;align=center;verticalAlign=middle;whiteSpace=wrap;rounded=0;" vertex="1" parent="1">
          <mxGeometry x="80" y="221.15999999999997" width="60" height="30" as="geometry" />
        </mxCell>
        <mxCell id="tQHQrTJd7DZpxrk2Vpas-239" value="" style="endArrow=classic;html=1;rounded=0;entryX=0;entryY=0.25;entryDx=0;entryDy=0;" edge="1" parent="1">
          <mxGeometry width="50" height="50" relative="1" as="geometry">
            <mxPoint x="30" y="286.47" as="sourcePoint" />
            <mxPoint x="146" y="286.47" as="targetPoint" />
          </mxGeometry>
        </mxCell>
        <mxCell id="tQHQrTJd7DZpxrk2Vpas-240" value="klimat" style="text;html=1;strokeColor=none;fillColor=none;align=center;verticalAlign=middle;whiteSpace=wrap;rounded=0;" vertex="1" parent="1">
          <mxGeometry x="80" y="253.47000000000003" width="60" height="30" as="geometry" />
        </mxCell>
        <mxCell id="tQHQrTJd7DZpxrk2Vpas-241" value="LyagLas" style="text;html=1;strokeColor=none;fillColor=none;align=center;verticalAlign=middle;whiteSpace=wrap;rounded=0;" vertex="1" parent="1">
          <mxGeometry x="80" y="316.15999999999997" width="60" height="30" as="geometry" />
        </mxCell>
        <mxCell id="tQHQrTJd7DZpxrk2Vpas-242" value="" style="endArrow=classic;html=1;rounded=0;entryX=0;entryY=0.25;entryDx=0;entryDy=0;" edge="1" parent="1">
          <mxGeometry width="50" height="50" relative="1" as="geometry">
            <mxPoint x="30" y="346.1600000000001" as="sourcePoint" />
            <mxPoint x="146" y="346.1600000000001" as="targetPoint" />
          </mxGeometry>
        </mxCell>
        <mxCell id="tQHQrTJd7DZpxrk2Vpas-243" value="" style="endArrow=classic;html=1;rounded=0;entryX=0;entryY=0.25;entryDx=0;entryDy=0;" edge="1" parent="1">
          <mxGeometry width="50" height="50" relative="1" as="geometry">
            <mxPoint x="30" y="369" as="sourcePoint" />
            <mxPoint x="146" y="369" as="targetPoint" />
          </mxGeometry>
        </mxCell>
        <mxCell id="tQHQrTJd7DZpxrk2Vpas-244" value="time" style="text;html=1;strokeColor=none;fillColor=none;align=center;verticalAlign=middle;whiteSpace=wrap;rounded=0;" vertex="1" parent="1">
          <mxGeometry x="80" y="346.1600000000001" width="60" height="30" as="geometry" />
        </mxCell>
        <mxCell id="tQHQrTJd7DZpxrk2Vpas-245" value="Yas" style="text;html=1;strokeColor=none;fillColor=none;align=center;verticalAlign=middle;whiteSpace=wrap;rounded=0;" vertex="1" parent="1">
          <mxGeometry x="80" y="705" width="60" height="30" as="geometry" />
        </mxCell>
        <mxCell id="tQHQrTJd7DZpxrk2Vpas-246" value="" style="endArrow=classic;html=1;rounded=0;entryX=0;entryY=0.25;entryDx=0;entryDy=0;" edge="1" parent="1">
          <mxGeometry width="50" height="50" relative="1" as="geometry">
            <mxPoint x="30" y="598" as="sourcePoint" />
            <mxPoint x="146" y="597.5" as="targetPoint" />
          </mxGeometry>
        </mxCell>
        <mxCell id="tQHQrTJd7DZpxrk2Vpas-247" value="RojdLas" style="text;html=1;strokeColor=none;fillColor=none;align=center;verticalAlign=middle;whiteSpace=wrap;rounded=0;" vertex="1" parent="1">
          <mxGeometry x="80" y="635" width="60" height="30" as="geometry" />
        </mxCell>
        <mxCell id="tQHQrTJd7DZpxrk2Vpas-248" value="" style="endArrow=classic;html=1;rounded=0;entryX=0;entryY=0.25;entryDx=0;entryDy=0;" edge="1" parent="1">
          <mxGeometry width="50" height="50" relative="1" as="geometry">
            <mxPoint x="30" y="660" as="sourcePoint" />
            <mxPoint x="146" y="660" as="targetPoint" />
          </mxGeometry>
        </mxCell>
        <mxCell id="tQHQrTJd7DZpxrk2Vpas-249" value="SmertLas" style="text;html=1;strokeColor=none;fillColor=none;align=center;verticalAlign=middle;whiteSpace=wrap;rounded=0;" vertex="1" parent="1">
          <mxGeometry x="80" y="565" width="60" height="30" as="geometry" />
        </mxCell>
        <mxCell id="tQHQrTJd7DZpxrk2Vpas-250" value="LasYas" style="text;html=1;strokeColor=none;fillColor=none;align=center;verticalAlign=middle;whiteSpace=wrap;rounded=0;" vertex="1" parent="1">
          <mxGeometry x="80" y="665" width="60" height="20" as="geometry" />
        </mxCell>
        <mxCell id="tQHQrTJd7DZpxrk2Vpas-251" value="" style="endArrow=classic;html=1;rounded=0;entryX=0;entryY=0.25;entryDx=0;entryDy=0;" edge="1" parent="1">
          <mxGeometry width="50" height="50" relative="1" as="geometry">
            <mxPoint x="30" y="685" as="sourcePoint" />
            <mxPoint x="146" y="685" as="targetPoint" />
          </mxGeometry>
        </mxCell>
        <mxCell id="tQHQrTJd7DZpxrk2Vpas-252" value="" style="endArrow=classic;html=1;rounded=0;entryX=0;entryY=0.25;entryDx=0;entryDy=0;" edge="1" parent="1">
          <mxGeometry width="50" height="50" relative="1" as="geometry">
            <mxPoint x="30" y="705" as="sourcePoint" />
            <mxPoint x="146" y="705" as="targetPoint" />
          </mxGeometry>
        </mxCell>
        <mxCell id="tQHQrTJd7DZpxrk2Vpas-253" value="time" style="text;html=1;strokeColor=none;fillColor=none;align=center;verticalAlign=middle;whiteSpace=wrap;rounded=0;" vertex="1" parent="1">
          <mxGeometry x="80" y="685" width="60" height="20" as="geometry" />
        </mxCell>
        <mxCell id="tQHQrTJd7DZpxrk2Vpas-254" value="&lt;font style=&quot;font-size: 17px;&quot;&gt;Las&lt;/font&gt;" style="text;html=1;strokeColor=none;fillColor=none;align=center;verticalAlign=middle;whiteSpace=wrap;rounded=0;" vertex="1" parent="1">
          <mxGeometry x="480" y="675" width="30" height="30" as="geometry" />
        </mxCell>
        <mxCell id="tQHQrTJd7DZpxrk2Vpas-255" value="&lt;font style=&quot;font-size: 17px;&quot;&gt;Las&lt;/font&gt;" style="text;html=1;strokeColor=none;fillColor=none;align=center;verticalAlign=middle;whiteSpace=wrap;rounded=0;" vertex="1" parent="1">
          <mxGeometry x="110" y="815" width="30" height="30" as="geometry" />
        </mxCell>
        <mxCell id="tQHQrTJd7DZpxrk2Vpas-256" value="&lt;font style=&quot;font-size: 18px;&quot;&gt;Yas&lt;/font&gt;" style="text;html=1;strokeColor=none;fillColor=none;align=center;verticalAlign=middle;whiteSpace=wrap;rounded=0;" vertex="1" parent="1">
          <mxGeometry x="505" y="965" width="15" height="30" as="geometry" />
        </mxCell>
        <mxCell id="tQHQrTJd7DZpxrk2Vpas-257" value="" style="endArrow=classic;html=1;rounded=0;entryX=0;entryY=0.25;entryDx=0;entryDy=0;" edge="1" parent="1">
          <mxGeometry width="50" height="50" relative="1" as="geometry">
            <mxPoint x="30" y="878" as="sourcePoint" />
            <mxPoint x="146" y="877.5" as="targetPoint" />
          </mxGeometry>
        </mxCell>
        <mxCell id="tQHQrTJd7DZpxrk2Vpas-258" value="RojdYas" style="text;html=1;strokeColor=none;fillColor=none;align=center;verticalAlign=middle;whiteSpace=wrap;rounded=0;" vertex="1" parent="1">
          <mxGeometry x="80" y="885" width="60" height="30" as="geometry" />
        </mxCell>
        <mxCell id="tQHQrTJd7DZpxrk2Vpas-259" value="" style="endArrow=classic;html=1;rounded=0;entryX=0;entryY=0.25;entryDx=0;entryDy=0;" edge="1" parent="1">
          <mxGeometry width="50" height="50" relative="1" as="geometry">
            <mxPoint x="30" y="915" as="sourcePoint" />
            <mxPoint x="146" y="915" as="targetPoint" />
          </mxGeometry>
        </mxCell>
        <mxCell id="tQHQrTJd7DZpxrk2Vpas-260" value="" style="endArrow=classic;html=1;rounded=0;entryX=0;entryY=0.25;entryDx=0;entryDy=0;" edge="1" parent="1">
          <mxGeometry width="50" height="50" relative="1" as="geometry">
            <mxPoint x="30" y="959.31" as="sourcePoint" />
            <mxPoint x="146" y="959.31" as="targetPoint" />
          </mxGeometry>
        </mxCell>
        <mxCell id="tQHQrTJd7DZpxrk2Vpas-261" value="time" style="text;html=1;strokeColor=none;fillColor=none;align=center;verticalAlign=middle;whiteSpace=wrap;rounded=0;" vertex="1" parent="1">
          <mxGeometry x="80" y="930" width="60" height="30" as="geometry" />
        </mxCell>
        <mxCell id="tQHQrTJd7DZpxrk2Vpas-262" value="SmertYas" style="text;html=1;strokeColor=none;fillColor=none;align=center;verticalAlign=middle;whiteSpace=wrap;rounded=0;" vertex="1" parent="1">
          <mxGeometry x="80" y="845" width="60" height="30" as="geometry" />
        </mxCell>
        <mxCell id="tQHQrTJd7DZpxrk2Vpas-263" value="" style="endArrow=classic;html=1;rounded=0;entryX=0;entryY=0.25;entryDx=0;entryDy=0;" edge="1" parent="1">
          <mxGeometry width="50" height="50" relative="1" as="geometry">
            <mxPoint x="30" y="228" as="sourcePoint" />
            <mxPoint x="146" y="227.5" as="targetPoint" />
          </mxGeometry>
        </mxCell>
        <mxCell id="tQHQrTJd7DZpxrk2Vpas-264" value="Lyag" style="text;html=1;strokeColor=none;fillColor=none;align=center;verticalAlign=middle;whiteSpace=wrap;rounded=0;" vertex="1" parent="1">
          <mxGeometry x="80" y="195" width="60" height="30" as="geometry" />
        </mxCell>
        <mxCell id="tQHQrTJd7DZpxrk2Vpas-265" value="" style="endArrow=classic;html=1;rounded=0;entryX=0;entryY=0.25;entryDx=0;entryDy=0;" edge="1" parent="1">
          <mxGeometry width="50" height="50" relative="1" as="geometry">
            <mxPoint x="30" y="634.9299999999998" as="sourcePoint" />
            <mxPoint x="146" y="634.4299999999998" as="targetPoint" />
          </mxGeometry>
        </mxCell>
        <mxCell id="tQHQrTJd7DZpxrk2Vpas-266" value="Las" style="text;html=1;strokeColor=none;fillColor=none;align=center;verticalAlign=middle;whiteSpace=wrap;rounded=0;" vertex="1" parent="1">
          <mxGeometry x="80" y="601.9299999999998" width="60" height="30" as="geometry" />
        </mxCell>
        <mxCell id="tQHQrTJd7DZpxrk2Vpas-267" value="" style="endArrow=classic;html=1;rounded=0;entryX=0;entryY=0.25;entryDx=0;entryDy=0;" edge="1" parent="1">
          <mxGeometry width="50" height="50" relative="1" as="geometry">
            <mxPoint x="30" y="993" as="sourcePoint" />
            <mxPoint x="146" y="992.5" as="targetPoint" />
          </mxGeometry>
        </mxCell>
        <mxCell id="tQHQrTJd7DZpxrk2Vpas-268" value="Yas" style="text;html=1;strokeColor=none;fillColor=none;align=center;verticalAlign=middle;whiteSpace=wrap;rounded=0;" vertex="1" parent="1">
          <mxGeometry x="80" y="960" width="60" height="30" as="geometry" />
        </mxCell>
        <mxCell id="tQHQrTJd7DZpxrk2Vpas-269" value="Схема формул проекта - Модель &quot;Хищник-Жертва&quot;" style="text;whiteSpace=wrap;fontStyle=1;strokeWidth=9;fontSize=20;" vertex="1" parent="1">
          <mxGeometry x="140" y="20" width="547" height="60" as="geometry" />
        </mxCell>
      </root>
    </mxGraphModel>
  </diagram>
</mxfile>
